<svg xmlns="http://www.w3.org/2000/svg" width="646.287" height="76.311" viewBox="0 0 646.287 76.311"><defs><style>.a{fill:#fff;}</style></defs><path class="a" d="M134.722,36.7l-10-15.413H111.44V44.5h8.072l-.244-17.919,12,17.919h6.669l12.2-17.919L149.728,44.5h8.154V21.29H144.706Z" transform="translate(31.628 10.498)"/><path class="a" d="M154.174,21.29,138.7,44.5h9.5l2.623-4.137H168.55l2.725,4.137h9.15L165.378,21.29Zm-.346,14.229,5.815-9.251,5.937,9.251Z" transform="translate(59.798 10.498)"/><path class="a" d="M193.1,38.935,176.449,21.29H163.13V44.5h8.052l-.224-17.456L187.368,44.5h13.441V21.29H192.9Z" transform="translate(85.043 10.498)"/><rect class="a" width="8.357" height="23.206" transform="translate(297.116 31.788)"/><path class="a" d="M196.87,44.5h8.316V36.429h19.785V31.176H205.186V26.542h20.862V21.29H196.87Z" transform="translate(119.909 10.498)"/><path class="a" d="M224.275,35.141H245.2v-4.6H224.275v-4h22.2V21.29H216.02V44.5h30.765V39.244H224.275Z" transform="translate(139.698 10.498)"/><path class="a" d="M263.1,30.461c-1.4,0-5.124-.172-5.856-.172h-7.788a15.856,15.856,0,0,1-3.375-.172,2.181,2.181,0,0,1-1.392-.6,1.549,1.549,0,0,1-.478-1.255c0-1.322.752-1.8,2.969-1.94,1.322,0,4.921-.137,7.584-.137,5.409,0,6.222.275,6.222,2.3h8.133c0-3.433-.63-4.909-2.521-5.99s-4.209-1.287-13.847-1.287a59.327,59.327,0,0,0-11.448.652c-3.965.807-5.368,2.575-5.368,6.763,0,3.158.915,5.012,2.887,5.87s3.863,1.013,8.947,1.013h7.584c4.331,0,4.331,0,5.226.275a1.843,1.843,0,0,1,1.4,1.888c0,1.905-1.159,2.146-10.838,2.146a29.9,29.9,0,0,1-5.612-.343c-.976-.309-1.179-.687-1.281-2.3h-8.134v1.15c0,2.746.874,4.531,2.562,5.149,2.42,1.047,4.534,1.219,14.051,1.219a81.742,81.742,0,0,0,12.2-.584c4.067-.738,5.531-2.609,5.531-6.866C270.4,32.624,268.322,30.667,263.1,30.461Z" transform="translate(160.272 10.407)"/><path class="a" d="M257.05,27.04h12.241V44.5h8.377V27.04h12.241V21.29H257.05Z" transform="translate(182.097 10.498)"/><path class="a" d="M314.592,38.935,297.939,21.29H284.62V44.5h8.032l-.2-17.456L308.858,44.5H322.3V21.29h-7.91Z" transform="translate(210.587 10.498)"/><path class="a" d="M338.848,21.517a98.967,98.967,0,0,0-12.2-.343c-7.259,0-9.76.137-12.078.687a6.573,6.573,0,0,0-5.47,4.566,18.164,18.164,0,0,0-.671,6.505c0,5.149.244,6.78,1.322,8.5a7.463,7.463,0,0,0,5.856,3.124,92.019,92.019,0,0,0,11.55.378c2.664,0,6.344,0,7.828-.1,4.067-.137,6.3-.687,7.95-1.871,2.338-1.716,3.05-3.9,3.05-9.509a40.813,40.813,0,0,0-.244-5.63c-.037-3.284-3.018-6.008-6.893-6.3Zm-2.176,16.357c-.956,1.116-2.44,1.322-9.659,1.322-6.3,0-7.666-.137-8.764-.91s-1.362-1.974-1.362-5.39.325-4.5,1.444-5.149,2.765-.841,8.906-.841c10.289,0,10.411,0,10.411,5.922C337.648,35.849,337.445,37.033,336.672,37.874Z" transform="translate(235.132 10.374)"/><path class="a" d="M379.541,21.29l-8.235,17.679L364.413,21.29H354.327l-7.1,17.679L339.24,21.29h-8.5L341.822,44.5h11.143l6.385-16.7,6.1,16.7h11.2L388.04,21.29Z" transform="translate(258.246 10.498)"/><path class="a" d="M41.08,2.77V79.081h6.771V15.66L78.9,39.4l-.02.017,5.043,3.862.02-.017L92.1,49.473l-8.154,6.334L75.81,49.473l3.07-2.351-5.043-3.845-8.072,6.162L83.943,63.565l18.2-14.126L88.986,39.4l31.07-23.738V79.081h6.771V2.77L83.943,35.536Z" transform="translate(-41.08 -2.77)"/></svg>