<svg xmlns="http://www.w3.org/2000/svg" width="322.199" height="71.38" viewBox="0 0 322.199 71.38"><defs><style>.a{fill:#fff;}</style></defs><path class="a" d="M222.912,4.824h0a4.393,4.393,0,0,0-.567,6.45c14.973,16.543,14.007,39.712-2.306,55.325a4.4,4.4,0,0,0,.332,6.6h0a6.486,6.486,0,0,0,4.386,1.447,6.319,6.319,0,0,0,4.232-1.744c19.822-19.139,20.95-47.41,2.7-67.631a6.25,6.25,0,0,0-4.268-1.893,6.5,6.5,0,0,0-4.506,1.448Zm-93.6,32.991a39.247,39.247,0,0,1,10.611-26.541,4.393,4.393,0,0,0-.567-6.45h0a6.51,6.51,0,0,0-4.574-1.438A6.207,6.207,0,0,0,130.5,5.368C112.278,25.6,113.4,53.85,133.2,73a6.319,6.319,0,0,0,4.232,1.744,6.486,6.486,0,0,0,4.386-1.447h0a4.4,4.4,0,0,0,.332-6.6c-8.324-7.99-12.891-18.277-12.839-28.916Zm17.587,0A25.874,25.874,0,0,1,152.758,21.7a4.385,4.385,0,0,0-.723-6.2h0a6.517,6.517,0,0,0-4.653-1.44,6.16,6.16,0,0,0-4.3,2.083c-11.354,14.24-10.257,33.088,2.7,46.319a6.319,6.319,0,0,0,4.232,1.744,6.486,6.486,0,0,0,4.386-1.447h0a4.4,4.4,0,0,0,.332-6.6A26.181,26.181,0,0,1,146.9,37.781Zm63.373-22.351h0a4.386,4.386,0,0,0-.743,6.2c8.426,10.581,7.632,24.574-1.954,34.426a4.4,4.4,0,0,0,.332,6.6h0a6.486,6.486,0,0,0,4.386,1.447,6.319,6.319,0,0,0,4.232-1.744c12.986-13.237,14.069-32.119,2.658-46.352a6.188,6.188,0,0,0-4.3-2.029,6.509,6.509,0,0,0-4.614,1.452Zm-.8,22.318c0,13.243-12.724,23.977-28.413,23.968s-28.4-10.757-28.374-24,12.763-23.962,28.452-23.935c15.677.009,28.383,10.734,28.394,23.968Z" transform="translate(-117.557 -3.367)"/><path class="a" d="M202.46,10.382a1.654,1.654,0,0,1,1.7-1.452h10.767a1.654,1.654,0,0,1,1.7,1.452V60.494a1.654,1.654,0,0,1-1.7,1.452H204.16a1.654,1.654,0,0,1-1.7-1.452Z" transform="translate(-36.546 0.247)"/><path class="a" d="M213.579,60.252,241.66,9.331a1.86,1.86,0,0,1,1.524-.841h.9a1.86,1.86,0,0,1,1.524.841l28.081,50.954a1.161,1.161,0,0,1-.057,1.377,1.7,1.7,0,0,1-1.467.6H262.2a3.022,3.022,0,0,1-3.127-1.9l-3.224-5.988H231.44l-3.146,6.087a3.418,3.418,0,0,1-3.244,1.814h-9.868a1.733,1.733,0,0,1-1.557-.589,1.178,1.178,0,0,1-.045-1.44Zm36.875-16.2-6.82-12.487h0l-6.742,12.487Z" transform="translate(-26.15 -0.039)"/><path class="a" d="M256.106,9.691a1.664,1.664,0,0,1,1.622-1.221h1.427a2.042,2.042,0,0,1,1.524.759l20.812,32.71h.176l20.812-32.71A2.042,2.042,0,0,1,304,8.47h1.446a1.622,1.622,0,0,1,1.6,1.221l10.142,50.888a1.237,1.237,0,0,1-.373,1.175,1.8,1.8,0,0,1-1.328.474H304.9a1.776,1.776,0,0,1-1.7-1.221l-4.026-23.374h-.2l-15.066,24.5a2.146,2.146,0,0,1-1.524.841h-1.622a2,2,0,0,1-1.524-.841L264.1,37.6h-.2l-3.908,23.39a1.679,1.679,0,0,1-1.7,1.221H247.723a1.82,1.82,0,0,1-1.332-.474A1.255,1.255,0,0,1,246,60.562Z" transform="translate(4.975 -0.052)"/></svg>