<svg xmlns="http://www.w3.org/2000/svg" width="427.186" height="72.407" viewBox="0 0 427.186 72.407"><defs><style>.a{fill:#fff;}</style></defs><path class="a" d="M113.754,7.322a2.2,2.2,0,0,0-1.723.785,1.525,1.525,0,0,0-.188,1.645l33.866,67.833a4.223,4.223,0,0,0,3.822,2.042h47.582a3.147,3.147,0,0,0,2.854-1.613L234.076,9.65A1.525,1.525,0,0,0,233.888,8a2.2,2.2,0,0,0-1.723-.785Zm78.424,59.216-24.5-49.006a3.032,3.032,0,0,1,.36-3.3,4.385,4.385,0,0,1,3.462-1.56h45.187a4.386,4.386,0,0,1,3.462,1.56,3.032,3.032,0,0,1,.36,3.3l-24.48,49.006a2.167,2.167,0,0,1-1.913.945,2.113,2.113,0,0,1-1.837-1.047Zm80.214,3.349L253.041,25.74H270.99l11.3,29.73,11.3-29.73h17.949L292.18,69.887Zm40.833-41.063a6.785,6.785,0,0,1,4.887-6.2,9.032,9.032,0,0,1,8.658,1.448,5.958,5.958,0,0,1,1.715,7.308,8.074,8.074,0,0,1-7.35,4.125c-4.369,0-7.91-2.989-7.91-6.677Zm.847,40.961V37.828H328.2V69.785Zm43.832,0V66.742a16.83,16.83,0,0,1-11.442,3.839,13.936,13.936,0,0,1-9.141-2.935,9.9,9.9,0,0,1-3.873-7.581c0-7.943,7.257-10.21,13.014-10.21,4.838,0,9.41,1.307,11.442,3.492V50.06c0-2.246-2.419-3.961-7.039-3.961a20.452,20.452,0,0,0-10.523,3.1L335.5,41.851a33.437,33.437,0,0,1,17.876-4.819c9.386,0,18.578,2.777,18.578,13.436V69.785Zm0-8.658v-1.8a8.078,8.078,0,0,0-5.564-1.715c-2.419,0-4.838.653-4.838,2.634s2.588,2.593,4.838,2.593a8.08,8.08,0,0,0,5.588-1.715Zm46.735,8.658V66.415A14.826,14.826,0,0,1,393.972,70.5c-9.168,0-16.691-5.819-16.691-16.805,0-10.6,7.257-16.744,16.691-16.744a14.476,14.476,0,0,1,10.668,4.084v-15.4h14.1V69.785Zm0-11.9V49.651a9.031,9.031,0,0,0-5.878-2.042,7.567,7.567,0,0,0-5.112,1.759,5.318,5.318,0,0,0-1.928,4.366,5.349,5.349,0,0,0,1.885,4.462,7.626,7.626,0,0,0,5.178,1.827,9.031,9.031,0,0,0,5.878-2.205Zm47.509,11.9V66.211a18.689,18.689,0,0,1-13.014,4.37c-8.781,0-12.53-4.431-12.53-9.924V37.828h14.1V55.552c0,3.247,2.032,4.513,5.491,4.513a7.96,7.96,0,0,0,5.951-2.512V37.828h14.127V69.785ZM471.5,53.776c0-10.21,9.241-16.744,21.239-16.744,8.636,0,13.958,3.308,16.086,6.024l-9.1,7.208a7.926,7.926,0,0,0-6.314-2.654,7.8,7.8,0,0,0-5.335,1.668,5.89,5.89,0,0,0-.05,9,7.854,7.854,0,0,0,5.384,1.744,8.172,8.172,0,0,0,6.362-2.777l9.1,7.269c-2.129,2.654-7.451,6.126-16.086,6.126-12-.061-21.239-6.7-21.239-16.907Zm44.921,6.738V48.14h-6.289V37.828h6.289V29.089h14.1v8.739h7.668V48.14H530.5v8.944a2.5,2.5,0,0,0,.816,2.059,3.54,3.54,0,0,0,2.329.922,6,6,0,0,0,2.806-.592l2.419,8.984a17.236,17.236,0,0,1-9.555,2.042C521.018,70.581,516.422,67.212,516.422,60.514Z" transform="translate(-111.684 -7.22)"/></svg>