<svg xmlns="http://www.w3.org/2000/svg" width="665.446" height="70.741" viewBox="0 0 665.446 70.741"><defs><style>.a{fill:#fff;}</style></defs><path class="a" d="M183.058,5.12h-48.12c-4.641-.006-8.741,2.551-10.1,6.3l-9.78,26.955H60.556c-4.641-.006-8.741,2.551-10.1,6.3L42.514,66.52a6.342,6.342,0,0,0,1.311,6.4,9.177,9.177,0,0,0,6.867,2.937H98.9c4.641.006,8.741-2.551,10.1-6.3l9.78-26.955h54.506c4.641.006,8.741-2.551,10.1-6.3L191.3,14.461a6.311,6.311,0,0,0-1.307-6.439,9.158,9.158,0,0,0-6.935-2.9Zm-78.872,63.2a5.478,5.478,0,0,1-5.29,3.291h-48.2a3.726,3.726,0,0,1-2.824-1.192,2.634,2.634,0,0,1-.548-2.651l7.946-21.848a5.493,5.493,0,0,1,5.29-3.309H113.5Zm82.307-55.155-7.925,21.991a5.493,5.493,0,0,1-5.29,3.309H120.31l9.337-25.8a5.478,5.478,0,0,1,5.29-3.291h48.12a3.753,3.753,0,0,1,2.845,1.192,2.64,2.64,0,0,1,.59,2.651Z" transform="translate(-42.145 -5.12)"/><path class="a" d="M150.75,46.356c-8.937,0-14.923-6.156-14.923-13.4s5.86-12.97,14.86-12.97a20.466,20.466,0,0,1,11.614,3.7l2.782-3.558a23.1,23.1,0,0,0-14.628-4.466,22.114,22.114,0,0,0-14.609,4.977,15.637,15.637,0,0,0-5.836,12.352,15.689,15.689,0,0,0,5.722,12.643,22.251,22.251,0,0,0,14.829,5.148,23.754,23.754,0,0,0,15.576-5.338l-3.014-3.416a19.967,19.967,0,0,1-12.372,4.323Z" transform="translate(55.166 3.087)"/><path class="a" d="M164.307,21.063c-8.266.215-14.783,6.013-14.6,12.992s6.989,12.532,15.259,12.443,14.909-5.787,14.878-12.767a11.8,11.8,0,0,0-4.58-9.118,16.642,16.642,0,0,0-10.954-3.549Zm0,21.35a10.943,10.943,0,0,1-7.139-2.6,7.749,7.749,0,0,1-2.767-6.134c0-4.618,4.435-8.362,9.906-8.362s9.906,3.744,9.906,8.362a7.7,7.7,0,0,1-2.73,6.18,10.9,10.9,0,0,1-7.176,2.609Z" transform="translate(76.998 7.297)"/><path class="a" d="M183.255,21.061c-4.578-.087-8.8,2.089-10.792,5.569h-.126a13.053,13.053,0,0,0,.127-1.779V21.63H167.11V45.863h5.522V34.476a9.828,9.828,0,0,1,.443-3.256c1.081-3.5,4.82-5.948,9.105-5.96,4.616,0,5.459,2.687,5.459,6.1v14.5h5.522v-15.5C193.162,24.175,190.063,21.061,183.255,21.061Z" transform="translate(96.284 7.299)"/><path class="a" d="M199.556,21.061c-4.585-.089-8.81,2.087-10.813,5.569h-.126a13.048,13.048,0,0,0,.127-1.779v-3.22H183.39V45.863h5.5V34.476a9.827,9.827,0,0,1,.443-3.256c1.081-3.5,4.82-5.948,9.105-5.96,4.616,0,5.459,2.687,5.459,6.1v14.5h5.522v-15.5C209.442,24.175,206.322,21.061,199.556,21.061Z" transform="translate(114.318 7.299)"/><path class="a" d="M213.107,21.06c-8.178,0-14.375,4.982-14.375,12.721a11.539,11.539,0,0,0,4.4,9.156A16.344,16.344,0,0,0,214.055,46.5a19.1,19.1,0,0,0,11.15-3.452l-2.276-3.416a15.229,15.229,0,0,1-8.431,2.829,10.476,10.476,0,0,1-7-2.2,7.406,7.406,0,0,1-2.906-5.808h21.077s.19-1.406.19-2.028C225.585,26.148,221.243,21.06,213.107,21.06Zm-8.431,9.892c.46-3.61,4.132-6.314,8.431-6.209,3.689,0,6.766,2.028,6.934,6.209Z" transform="translate(131.309 7.301)"/><path class="a" d="M229.511,42.477a10.969,10.969,0,0,1-7.332-2.506,7.732,7.732,0,0,1-2.848-6.23,7.606,7.606,0,0,1,2.782-6.158,10.8,10.8,0,0,1,7.23-2.488,12.834,12.834,0,0,1,7.967,2.793l2.614-3.274a16.168,16.168,0,0,0-10.813-3.558,16.368,16.368,0,0,0-10.988,3.532,11.747,11.747,0,0,0-.008,18.391,16.366,16.366,0,0,0,11,3.538A17.434,17.434,0,0,0,240.6,42.637l-2.108-3.416A14.356,14.356,0,0,1,229.511,42.477Z" transform="translate(147.869 7.287)"/><path class="a" d="M237.484,39.194V28.376h6.934V24.64h-6.934V17.63H232.13v7.01h-3.92v3.736h3.773V39.638c0,8.131,7.335,9.092,11.045,9.092a15.645,15.645,0,0,0,1.918-.107V44.567a8.36,8.36,0,0,1-1.307,0C241.531,44.656,237.484,44.033,237.484,39.194Z" transform="translate(163.967 4.628)"/><rect class="a" width="5.522" height="24.304" transform="translate(415.109 28.93)"/><rect class="a" width="5.586" height="4.75" transform="translate(415.046 19.322)"/><path class="a" d="M258.86,37.833c-.569,1.352-.97,3.309-1.033,3.309h-.105a21.526,21.526,0,0,0-.97-3.309l-7-16.422H244l10.644,24.232h6.323l10.644-24.3h-5.8Z" transform="translate(181.458 7.519)"/><path class="a" d="M272.818,21.06c-8.2,0-14.4,4.982-14.4,12.721a11.534,11.534,0,0,0,4.383,9.136A16.33,16.33,0,0,0,273.682,46.5a19.187,19.187,0,0,0,11.255-3.452l-2.276-3.416a15.246,15.246,0,0,1-8.536,2.829,10.476,10.476,0,0,1-7-2.2,7.406,7.406,0,0,1-2.906-5.808H285.3s.169-1.406.169-2.028C285.275,26.148,280.954,21.06,272.818,21.06Zm-8.536,9.892c.479-3.6,4.139-6.3,8.431-6.209,3.689,0,6.766,2.028,6.935,6.209Z" transform="translate(197.43 7.301)"/><path class="a" d="M296.544,16.005H281.79v33.8h5.628V37.356h9.042a13.416,13.416,0,0,0,9.109-2.986,9.429,9.429,0,0,0,3.538-7.689,9.309,9.309,0,0,0-3.466-7.7A13.276,13.276,0,0,0,296.544,16.005Zm-.906,17.24H287.5V20.1h8.2a7.9,7.9,0,0,1,5.713,1.747,5.475,5.475,0,0,1,2.023,4.836,5.624,5.624,0,0,1-2.127,4.773,8.063,8.063,0,0,1-5.672,1.756Z" transform="translate(223.32 3.353)"/><path class="a" d="M303.021,42.421V16h-5.5V43.239c0,6.1,4.595,6.832,7.735,6.832a16.219,16.219,0,0,0,1.813-.107V45.837a9.085,9.085,0,0,1-.97,0C304.391,45.89,303.021,45.357,303.021,42.421Z" transform="translate(240.744 3.358)"/><path class="a" d="M316.416,21.06a20.4,20.4,0,0,0-10.75,2.882l2.276,3.4a16.445,16.445,0,0,1,8.03-2.349c3.625,0,6.323,1.352,6.323,5.338v.427h-1.18c-4.848,0-17.347.338-17.347,8.362,0,4.839,4.827,7.384,9.78,7.384a10.24,10.24,0,0,0,9.211-4.8h.126a13.937,13.937,0,0,0-.126,1.922v2.242h5.122v-15.3C327.8,24.512,323.709,21.06,316.416,21.06Zm5.923,13.967a7.887,7.887,0,0,1-7.672,7.739,5.456,5.456,0,0,1-3.724-.942,3.872,3.872,0,0,1-1.693-2.954c0-4.377,7.525-4.608,11.677-4.608h1.412Z" transform="translate(247.668 7.3)"/><path class="a" d="M333.93,42.477a10.989,10.989,0,0,1-7.325-2.512,7.751,7.751,0,0,1-2.855-6.224,7.625,7.625,0,0,1,2.789-6.153,10.818,10.818,0,0,1,7.223-2.494,12.834,12.834,0,0,1,7.967,2.793l2.614-3.274a16.168,16.168,0,0,0-10.813-3.558,16.363,16.363,0,0,0-10.974,3.539,11.726,11.726,0,0,0,0,18.365A16.363,16.363,0,0,0,333.53,46.5a17.363,17.363,0,0,0,11.487-3.879L342.8,39.2a14.259,14.259,0,0,1-8.874,3.274Z" transform="translate(263.562 7.287)"/><path class="a" d="M347.308,21.06c-8.178,0-14.4,4.982-14.4,12.721a11.534,11.534,0,0,0,4.383,9.136A16.33,16.33,0,0,0,348.172,46.5a19.173,19.173,0,0,0,11.15-3.452l-2.276-3.416a15.246,15.246,0,0,1-8.536,2.829,10.476,10.476,0,0,1-7-2.2,7.406,7.406,0,0,1-2.906-5.808H359.68s.169-1.406.169-2.028C359.765,26.148,355.444,21.06,347.308,21.06Zm-8.536,9.892c.479-3.6,4.139-6.3,8.431-6.209,3.689,0,6.766,2.028,6.935,6.209Z" transform="translate(279.946 7.301)"/><path class="a" d="M354.274,28.1c0-2.117,2.34-2.989,4.721-2.989a11.772,11.772,0,0,1,7.124,2.171l2.213-3.558a14.552,14.552,0,0,0-9.274-2.687c-5.754,0-10.412,2.491-10.412,6.9,0,7.935,14.754,7.01,14.754,11.476,0,1.975-2.4,3.025-4.785,3.025a13.686,13.686,0,0,1-8.22-2.776l-2.656,3.309a17.11,17.11,0,0,0,10.918,3.558c6.323,0,10.412-3.025,10.412-7.117C369.07,31.5,354.274,32.46,354.274,28.1Z" transform="translate(296.375 7.269)"/></svg>