<svg xmlns="http://www.w3.org/2000/svg" width="655.324" height="77.201" viewBox="0 0 655.324 77.201"><defs><style>.a{fill:#fff;}</style></defs><path class="a" d="M146.163,13.24V41.228l-20.3-27.988H116.6V53.9h9.033V25.908l20.3,27.988H155.2V13.24Z" transform="translate(39.799 4.97)"/><path class="a" d="M167.25,38.149a13.314,13.314,0,0,1-10.819,5.078,8.806,8.806,0,0,1-8.048-4.367l26.463-4.038a2.931,2.931,0,0,0,0-.849c-.21-8.614-8.652-15.453-18.857-15.276s-18.307,7.3-18.1,15.918a13.064,13.064,0,0,0,1.293,5.632c2.825,5.962,9.619,9.906,17.225,10,7.964.006,15.193-3.927,18.477-10.051ZM147.4,32.032c.752-3.279,3.95-5.76,7.884-6.117a9.88,9.88,0,0,1,9.177,4.488l-17.286,2.582Z" transform="translate(62.216 8.967)"/><path class="a" d="M159.259,25.084V55.377h9.177V25.084Zm4.578-13.864c-2.755.019-4.97,1.92-4.947,4.246s2.275,4.2,5.03,4.176,4.97-1.92,4.948-4.246-2.279-4.186-5.03-4.177Z" transform="translate(84.331 3.489)"/><path class="a" d="M195.108,19.415v1.993c-7.733-4.169-17.919-2.916-23.921,2.942a13.813,13.813,0,0,0,0,20.405c6,5.858,16.188,7.111,23.921,2.942a9.143,9.143,0,0,1-9.3,7.885,13.2,13.2,0,0,1-10.819-5.095l-7.227,3.206c3.44,5.68,10.5,9.136,18.046,8.838,10.028-.053,18.2-6.806,18.477-15.268V19.415ZM185.48,42.983a10.131,10.131,0,0,1-6.831-2.451,7.117,7.117,0,0,1-2.49-5.9,7.662,7.662,0,0,1,4.534-7.136,10.841,10.841,0,0,1,9.593,0,7.662,7.662,0,0,1,4.534,7.136,7.173,7.173,0,0,1-2.518,5.892,10.194,10.194,0,0,1-6.823,2.461Z" transform="translate(92.54 9.159)"/><path class="a" d="M207.73,25.009a15.09,15.09,0,0,0-9.793,3.57V10.66H188.76V55.718h9.177v-16.6A6.147,6.147,0,0,1,201.5,33.1a8.782,8.782,0,0,1,7.967,0,6.147,6.147,0,0,1,3.562,6.015V55.787h9.321V38.873C222.347,31.057,216.455,25.009,207.73,25.009Z" transform="translate(115.785 3.079)"/><path class="a" d="M227.856,25.009a20.292,20.292,0,0,0-10.039,2.547V10.66H208.64V55.718h9.177v-2.01a20.264,20.264,0,0,0,10.039,2.6c10.2,0,18.477-6.983,18.477-15.6s-8.272-15.6-18.477-15.6Zm-.287,23.985a10.157,10.157,0,0,1-6.792-2.433,7.15,7.15,0,0,1-2.529-5.851,7.663,7.663,0,0,1,4.535-7.136,10.841,10.841,0,0,1,9.593,0,7.663,7.663,0,0,1,4.535,7.136,7.206,7.206,0,0,1-2.557,5.841,10.22,10.22,0,0,1-6.785,2.443Z" transform="translate(136.719 3.079)"/><path class="a" d="M247.477,18.94c-10.2,0-18.477,6.983-18.477,15.6s8.273,15.6,18.477,15.6,18.477-6.983,18.477-15.6S257.682,18.94,247.477,18.94Zm.328,23.985a10.157,10.157,0,0,1-6.792-2.433,7.15,7.15,0,0,1-2.529-5.851,7.625,7.625,0,0,1,4.473-7.262,10.835,10.835,0,0,1,9.7,0,7.625,7.625,0,0,1,4.473,7.262,7.206,7.206,0,0,1-2.557,5.841,10.22,10.22,0,0,1-6.785,2.443Z" transform="translate(158.159 9.148)"/><path class="a" d="M268.295,18.94a15.217,15.217,0,0,0-9.588,3.57V19.425H249.53V49.718h9.177V33.047a5.845,5.845,0,0,1,1.974-4.843,8.306,8.306,0,0,1,5.54-2.089,9.487,9.487,0,0,1,4.6,1.837l2.525-8.128A14.794,14.794,0,0,0,268.295,18.94Z" transform="translate(179.777 9.148)"/><path class="a" d="M289.075,19.425v1.022a22.163,22.163,0,0,0-8.048-1.508c-10.2,0-18.477,6.983-18.477,15.6s8.273,15.6,18.477,15.6a21.847,21.847,0,0,0,7.886-1.457c-.561,2.9-3.46,5.075-6.942,5.2a14.121,14.121,0,0,1-9.485-3.813l-8.807,3.951s4.435,8.474,18.292,8.474c9.988-.069,18.136-6.772,18.477-15.2V19.425ZM281.458,41.3c-4.291,0-7.165-2.686-7.165-6.655s2.874-6.672,7.165-6.672,7.165,2.669,7.165,6.672S285.77,41.3,281.458,41.3Z" transform="translate(193.487 9.148)"/><path class="a" d="M301.707,18.94c-10.2,0-18.477,6.983-18.477,15.6s8.273,15.6,18.477,15.6,18.477-6.983,18.477-15.6S311.912,18.94,301.707,18.94Zm.431,22.286c-4.311,0-7.165-2.651-7.165-6.655s2.854-6.655,7.165-6.655,7.165,2.651,7.165,6.655S306.45,41.226,302.138,41.226Z" transform="translate(215.264 9.148)"/><path class="a" d="M321.417,18.94c-10.2,0-18.477,6.983-18.477,15.6s8.273,15.6,18.477,15.6,18.477-6.983,18.477-15.6S331.622,18.94,321.417,18.94Zm.411,22.286c-4.291,0-7.165-2.651-7.165-6.655s2.874-6.655,7.165-6.655,7.186,2.651,7.186,6.655S326.139,41.226,321.828,41.226Z" transform="translate(236.019 9.148)"/><path class="a" d="M349.145,10.66V26.586a20.808,20.808,0,0,0-8.027-1.577c-10.2,0-18.477,6.983-18.477,15.6s8.273,15.6,18.477,15.6a20.5,20.5,0,0,0,8.027-1.577v1.109h11.333V10.677ZM341.466,47.3c-4.291,0-7.165-2.651-7.165-6.655s2.874-6.655,7.165-6.655,7.165,2.651,7.165,6.655S345.778,47.3,341.466,47.3Z" transform="translate(256.763 3.079)"/><path class="a" d="M354.876,28.523c0-.745,1.725-1.352,4.393-1.352a18.246,18.246,0,0,1,10.388,3.639l7.021-5.32a25.576,25.576,0,0,0-17.2-6.551c-9.464,0-15.049,3.813-15.049,9.514,0,10.155,20.715,10.4,20.715,12.131,0,.745-1.642,1.317-4.311,1.317a18.122,18.122,0,0,1-10.409-3.622l-7,5.32a25.211,25.211,0,0,0,17.04,6.637c9.464,0,15.131-3.8,15.131-9.5C375.591,30.5,354.876,30.326,354.876,28.523Z" transform="translate(278.645 9.148)"/><path class="a" d="M92.136,44.026h33.382c-8.007,6.932-22.152,18.924-33.4,27.364l-6.672-4.783C65.385,52.275,48.057,39.9,48.057,26.159c-.235-6.2,3.55-12.016,9.875-15.174a23.382,23.382,0,0,1,20.51,0c6.325,3.159,10.109,8.974,9.875,15.174h7.637c-.235-6.2,3.55-12.016,9.875-15.174a23.382,23.382,0,0,1,20.51,0c6.325,3.159,10.109,8.974,9.875,15.174h7.637c-.012-10.571-8.4-19.829-20.488-22.6S98.488,5.177,92.136,14.288C85.783,5.177,72.993.782,60.908,3.556S40.432,15.587,40.42,26.159c0,7.781,3.983,15.337,12.585,23.777,7.309,7.175,17.122,14.176,27.49,21.593,3,2.149,6.159,4.35,9.136,6.585l2.5,1.82,2.5-1.82c11.641-8.509,27.346-21.8,36.092-29.34v26.9h7.637V37.544H92.136Z" transform="translate(-40.42 -2.732)"/></svg>