<svg xmlns="http://www.w3.org/2000/svg" width="1760" height="1080" viewBox="0 0 2709.951 1662.993"><defs><style>.a{fill:none;}.b{fill:#ad65a0;opacity:0.05;}.c{fill:#c2667f;opacity:0.1;}.d{fill:#d6665e;opacity:0.25;}.e{fill:#eb673d;opacity:0.5;}.f{fill:#ff671d;}</style></defs><path class="a" d="M0,0H2709.951V1662.993H0Z"/><path class="b" d="M2666.524,604.635v971.521H171.113C130.67,1452.465,20.146,1313.92,58.782,1209.983,108.057,1077.5,373.425,1053.9,455.31,939.136s13.726-367.558,123.722-458.247c108.452-89.469,349.833,19.642,481.255-40.411C1187.342,382.4,1256.8,129.831,1401.252,104.831S1699.08,293.84,1838.674,305.739c144.433,12.325,333.264-171.233,466.306-123.56,135,48.356,159.044,308.781,276.006,389.14C2604.654,587.524,2633.988,597.761,2666.524,604.635Z" transform="translate(43.427 86.838)"/><path class="c" d="M2538.863,797.471v691.2H201.3c37.742-37.805,70.351-76.183,81.542-117.075,32.4-118.405-101.036-306.25-38.12-413.162,62.029-105.415,294.389-86.605,384.253-174.577,86.939-85,66.973-313.086,178.445-376.114s303.221,68.035,421.882,36.734C1352.1,412.193,1451.586,205.815,1575.833,206c126.021.111,225.434,207.191,346.379,238.917s312.751-98.93,421.958-37.325c107.66,60.718,88.43,288.252,178.275,376.243a136.7,136.7,0,0,0,16.418,13.637Z" transform="translate(171.088 174.327)"/><path class="d" d="M2455.629,984.16v397.584H242c.092-.591.185-1.2.3-1.848,18.016-102.7,206.71-154.215,251.87-250.909,43.644-93.423-38.969-271.4,30.47-354.162s259.057-32.3,343.5-91.5C955.5,622.052,973.458,427.278,1071.39,391.709c99.428-36.087,238.529,102.163,343.223,93s217.741-169.441,321.937-151.129c102.7,18.016,154.215,206.71,250.89,251.87,93.442,43.644,271.419-38.97,354.162,30.47s32.317,259.057,91.52,343.5A140.03,140.03,0,0,0,2455.629,984.16Z" transform="translate(254.322 281.249)"/><path class="e" d="M2338.428,1200.063v84.462H416.636c-24.594-51.165-46.841-102.348-31.153-145.438,30.784-84.591,193.646-99.133,242.89-169.57,50.961-72.858,9.516-230.509,76.128-286.4,67.573-56.6,215.912,12.011,295.274-24.982S1121.912,463.376,1208.7,448c85.57-15.17,179.7,117.906,268.278,125.648,85.607,7.539,201.407-107.873,286.016-77.089s99.133,193.646,169.551,242.908c72.876,50.961,230.528,9.516,286.4,76.128,56.6,67.573-12.029,215.912,24.982,295.274C2259.88,1145.388,2298.517,1172.883,2338.428,1200.063Z" transform="translate(371.522 378.468)"/><path class="f" d="M1996.319,1192.727H554.965c-1.848-67.259-54.38-155.4-24.021-207.856,35.329-60.977,165.6-50.038,215.136-99.576s38.544-179.825,99.576-215.136c60.182-34.812,167.353,39.487,236.071,21.12,66.427-17.757,121.953-136.2,193.924-136.2s127.5,118.442,194.016,136.2c68.719,18.367,175.89-55.932,236.071-21.12,60.976,35.329,50.038,165.6,99.577,215.136s179.807,38.544,215.118,99.576C2050.68,1037.311,1998.167,1125.45,1996.319,1192.727Z" transform="translate(491.29 470.266)"/></svg>