<?xml version="1.0" encoding="UTF-8" standalone="no"?>
<!-- Created with Inkscape (http://www.inkscape.org/) -->

<svg
   xmlns:dc="http://purl.org/dc/elements/1.1/"
   xmlns:cc="http://creativecommons.org/ns#"
   xmlns:rdf="http://www.w3.org/1999/02/22-rdf-syntax-ns#"
   xmlns:svg="http://www.w3.org/2000/svg"
   xmlns="http://www.w3.org/2000/svg"
   version="1.1"
   width="1080"
   height="1760"
   viewBox="0 0 1662.9245 2710.0627"
   id="svg3045">
  <metadata
     id="metadata3065">
    <rdf:RDF>
      <cc:Work
         rdf:about="">
        <dc:format>image/svg+xml</dc:format>
        <dc:type
           rdf:resource="http://purl.org/dc/dcmitype/StillImage" />
        <dc:title></dc:title>
      </cc:Work>
    </rdf:RDF>
  </metadata>
  <defs
     id="defs3047">
    <style
       id="style3049" />
  </defs>
  <g
     transform="matrix(0,-1,1,0,-1045.9547,2717.0519)"
     id="g3101">
    <path
       d="m 0,1047.0697 h 2709.951 v 1662.993 H 0 z"
       id="path3051"
       style="fill:none" />
    <path
       d="m 2709.951,1738.5427 v 971.521 H 214.54 c -40.443,-123.691 -150.967,-262.236 -112.331,-366.173 49.275,-132.483 314.643,-156.083 396.528,-270.847 81.885,-114.764 13.726,-367.558 123.722,-458.247 108.452,-89.469 349.833,19.642 481.255,-40.411 127.055,-58.078 196.513,-310.647 340.965,-335.647 144.452,-25 297.828,189.009 437.422,200.908 144.433,12.325 333.264,-171.233 466.306,-123.56 135,48.356 159.044,308.781 276.006,389.14 23.668,16.205 53.002,26.442 85.538,33.316 z"
       id="path3053"
       style="opacity:0.05;fill:#ad65a0" />
    <path
       d="m 2709.951,2018.8677 v 691.2 H 372.388 c 37.742,-37.805 70.351,-76.183 81.542,-117.075 32.4,-118.405 -101.036,-306.25 -38.12,-413.162 62.029,-105.415 294.389,-86.605 384.253,-174.577 86.939,-85 66.973,-313.086 178.445,-376.114 111.472,-63.028 303.221,68.035 421.882,36.734 122.798,-32.284 222.284,-238.662 346.531,-238.477 126.021,0.111 225.434,207.191 346.379,238.917 120.945,31.726 312.751,-98.93 421.958,-37.325 107.66,60.718 88.43,288.252 178.275,376.243 a 136.7,136.7 0 0 0 16.418,13.637 z"
       id="path3055"
       style="opacity:0.1;fill:#c2667f" />
    <path
       d="m 2709.951,2312.4787 v 397.584 H 496.322 c 0.092,-0.591 0.185,-1.2 0.3,-1.848 18.016,-102.7 206.71,-154.215 251.87,-250.909 43.644,-93.423 -38.969,-271.4 30.47,-354.162 69.439,-82.762 259.057,-32.3 343.5,-91.5 87.36,-61.273 105.318,-256.047 203.25,-291.616 99.428,-36.087 238.529,102.163 343.223,93 104.694,-9.163 217.741,-169.441 321.937,-151.129 102.7,18.016 154.215,206.71 250.89,251.87 93.442,43.644 271.419,-38.97 354.162,30.47 82.743,69.44 32.317,259.057 91.52,343.5 a 140.03,140.03 0 0 0 22.507,24.74 z"
       id="path3057"
       style="opacity:0.25;fill:#d6665e" />
    <path
       d="m 2709.95,2625.6007 v 84.462 H 788.158 c -24.594,-51.165 -46.841,-102.348 -31.153,-145.438 30.784,-84.591 193.646,-99.133 242.89,-169.57 50.961,-72.858 9.516,-230.509 76.128,-286.4 67.573,-56.6 215.912,12.011 295.274,-24.982 79.362,-36.993 122.137,-194.759 208.925,-210.135 85.57,-15.17 179.7,117.906 268.278,125.648 85.607,7.539 201.407,-107.873 286.016,-77.089 84.609,30.784 99.133,193.646 169.551,242.908 72.876,50.961 230.528,9.516 286.4,76.128 56.6,67.573 -12.029,215.912 24.982,295.274 15.953,34.519 54.59,62.014 94.501,89.194 z"
       id="path3059"
       style="opacity:0.5;fill:#eb673d" />
    <path
       d="M 2487.609,2710.0627 H 1046.255 c -1.848,-67.259 -54.38,-155.4 -24.021,-207.856 35.329,-60.977 165.6,-50.038 215.136,-99.576 49.536,-49.538 38.544,-179.825 99.576,-215.136 60.182,-34.812 167.353,39.487 236.071,21.12 66.427,-17.757 121.953,-136.2 193.924,-136.2 71.971,0 127.5,118.442 194.016,136.2 68.719,18.367 175.89,-55.932 236.071,-21.12 60.976,35.329 50.038,165.6 99.577,215.136 49.539,49.536 179.807,38.544 215.118,99.576 30.247,52.44 -22.266,140.579 -24.114,207.856 z"
       id="path3061"
       style="fill:#ff671d" />
  </g>
</svg>
