<svg xmlns="http://www.w3.org/2000/svg" width="140" height="140" viewBox="0 0 140 140"><defs><style>.a{fill:#f8f6ed;}</style></defs><path class="a" d="M69.873,11.67a58.235,58.235,0,1,0,58.2,58.235,58.219,58.219,0,0,0-58.2-58.235Zm0,110.834a52.6,52.6,0,1,1,52.57-52.6A52.584,52.584,0,0,1,69.873,122.5Z" transform="translate(0.127 0.095)"/><path class="a" d="M62.384,16a46.466,46.466,0,1,0,46.434,46.358A46.45,46.45,0,0,0,62.384,16Zm0,87.519a40.911,40.911,0,1,0,0-.108Z" transform="translate(7.616 7.672)"/><path class="a" d="M141.57,10.271V49.492A70,70,0,0,0,7.38,77.392v67.121h5.81V105.291a70,70,0,0,0,134.19-27.9V10.271ZM77.38,141.606a64.215,64.215,0,1,1,64.19-64.215A64.2,64.2,0,0,1,77.38,141.606Z" transform="translate(-7.38 -7.392)"/></svg>