<svg xmlns="http://www.w3.org/2000/svg" width="211.779" height="211.779" viewBox="0 0 211.779 211.779"><defs><style>.a,.b,.c,.d,.e,.f,.g{fill:none;stroke-miterlimit:10;stroke-width:5px;}.a{stroke:#d6665e;}.b{stroke:#c2667f;}.c{stroke:#eb673d;}.d{stroke:#ad65a0;}.e{stroke:#ff671d;}.f{stroke:#9164cc;}.g{stroke:#ff9b00;}</style></defs><g transform="translate(2.5 2.5)"><circle class="a" cx="27.364" cy="27.364" r="27.364" transform="translate(152.05 76.025)"/><circle class="a" cx="27.364" cy="27.364" r="27.364" transform="translate(0 76.025)"/><circle class="b" cx="27.364" cy="27.364" r="27.364" transform="translate(141.865 38.012)"/><circle class="c" cx="27.364" cy="27.364" r="27.364" transform="translate(141.865 114.037)"/><circle class="b" cx="27.364" cy="27.364" r="27.364" transform="translate(10.185 38.012)"/><circle class="c" cx="27.364" cy="27.364" r="27.364" transform="translate(10.185 114.037)"/><circle class="d" cx="27.364" cy="27.364" r="27.364" transform="translate(114.037 10.185)"/><circle class="d" cx="27.364" cy="27.364" r="27.364" transform="translate(38.012 10.185)"/><circle class="e" cx="27.364" cy="27.364" r="27.364" transform="translate(114.037 141.865)"/><circle class="e" cx="27.364" cy="27.364" r="27.364" transform="translate(38.012 141.865)"/><circle class="f" cx="27.364" cy="27.364" r="27.364" transform="translate(76.025)"/><circle class="g" cx="27.364" cy="27.364" r="27.364" transform="translate(76.025 152.05)"/></g></svg>